<svg id="Layer_1" data-name="Layer 1" xmlns="http://www.w3.org/2000/svg" viewBox="0 0 478.044 478.044"><defs><style>.cls-1{fill:#fff;}</style></defs><title>ladder</title><polygon class="cls-1" points="231.179 290.721 231.179 290.708 232.072 283.809 163.639 263.334 162.705 263.06 150.42 266.399 161.592 269.861 230.656 291.298 231.179 290.721"/><polygon class="cls-1" points="145.61 320.952 224.198 344.67 229.818 301.22 229.818 301.216 158.732 279.019 145.61 320.952"/><polygon class="cls-1" points="274.141 99.625 184.022 72.973 183.831 85.436 274.141 112.267 274.141 99.625"/><polygon class="cls-1" points="240.303 220.337 182.506 203.051 178.618 201.882 167.611 204.878 167.418 205.483 167.418 205.496 180.5 209.426 239.424 227.112 240.303 220.337"/><polygon class="cls-1" points="238.118 237.143 238.119 237.14 177.49 219.047 164.546 260.435 232.47 280.745 238.118 237.143"/><polygon class="cls-1" points="308.282 87.127 316.486 84.86 315.853 84.681 229.901 60.909 189.154 71.356 275.547 96.173 308.282 87.127"/><polygon class="cls-1" points="310.11 239.892 270.481 227.565 260.726 308.256 320.124 326.022 310.113 239.893 310.11 239.892"/><polygon class="cls-1" points="295.188 111.478 295.186 111.477 286.873 109.416 286.862 109.416 284.674 110.107 281.527 136.157 298.604 140.869 295.188 111.478"/><polygon class="cls-1" points="271.675 217.685 308.873 229.269 308.878 229.269 308.278 224.101 272.203 213.317 271.675 217.685"/><polygon class="cls-1" points="307.895 220.804 300.955 161.099 277.566 168.955 272.575 210.24 307.895 220.804"/><polygon class="cls-1" points="254.677 109.388 215.321 98.12 206.1 127.61 254.003 114.569 254.677 109.388"/><polygon class="cls-1" points="355.649 126.565 319.285 117.498 321.863 138.601 355.649 126.565"/><polygon class="cls-1" points="260.355 311.321 259.834 315.636 321.127 334.651 320.505 329.305 260.355 311.321"/><polygon class="cls-1" points="246.281 174.125 246.281 174.12 196.33 158.844 196.33 158.844 183.413 200.137 240.701 217.287 246.281 174.125"/><polygon class="cls-1" points="263.787 112.013 258.318 110.433 219.416 410.657 227.771 412.773 266.357 112.741 263.787 112.013"/><path class="cls-1" d="M239.022,0C107.014,0,0,107.014,0,239.022S107.014,478.044,239.022,478.044,478.044,371.03,478.044,239.022,371.03,0,239.022,0ZM367.686,126.263h0l-.242,12.5-43.763,14.7,27.364,223.995-17.08,10.116-6.9-1.825-4.708-40.5-63.71-19.8-10.1,83.545L230.6,417.363h-.013l-15.308-3.9,6.457-49.877-81.649-24.95,0,0-9,28.76-17.906,8.218-.041.137-.165-.041-.055.028.014-.042-16.069-4.467L187.09,89.654l-6.711-1.917.192-17.065,49.214-12.719L321.474,83.4V98.486l-4.344,1.372,1.685,13.792,49.133,12.517Z"/><polygon class="cls-1" points="250.678 140.252 234.476 135.855 234.476 135.813 211.226 142.492 248.891 154.007 250.678 140.252"/><polygon class="cls-1" points="223.799 347.735 144.703 323.866 141.9 323.013 129.684 326.325 142.697 330.269 222.92 354.537 223.799 347.735"/><polygon class="cls-1" points="248.493 157.058 205.881 144.031 201.401 142.657 199.848 142.176 199.024 141.929 186.835 145.24 199.408 149.005 247.668 163.434 248.493 157.058"/><polygon class="cls-1" points="191.328 91.236 102.27 369.13 110.652 371.26 199.202 93.49 191.328 91.236"/></svg>