<?xml version="1.0" encoding="utf-8"?>
<!-- Generator: Adobe Illustrator 23.1.1, SVG Export Plug-In . SVG Version: 6.00 Build 0)  -->
<svg version="1.1" id="Layer_1" xmlns="http://www.w3.org/2000/svg" xmlns:xlink="http://www.w3.org/1999/xlink" x="0px" y="0px"
	 viewBox="0 0 297.1 99.7" style="enable-background:new 0 0 297.1 99.7;" xml:space="preserve">
<style type="text/css">
	.st0{fill:#FFFFFF;}
</style>
<path class="st0" d="M77.5,16.8C88.3,16.8,87.2,3,87.2,3s-0.9,4.3-10.6,4.3C66,7.3,54.5,6.7,53,20.9c-0.7,6.7,3.2,12.2,5.7,19.5
	c-2.2,0.7-4.5,1.5-6.7,2.3c-3.7,1.3-7.3,2.9-10.8,4.8c-4.2-2.3-12.8-0.1-10.9-3.4c6.4-11.4,11.9-17.8,12.1-28.6
	C42.5,5.8,36,0,28.5,0C14.8,0,1.9,21.2,1.9,36.4c0,14.3,5.2,24.7,12.6,31.5C2.5,80.9-3.3,94.2,1.9,98.5c6.1,5.1,19.7-7.7,29.7-21.9
	c2.3,0.5,4.7,0.7,7,0.7c17.6,0,29.8-7.5,30.5-21.6c0.3-5.2-0.8-9.5-2.4-13.2c5.5-1.1,9.1-1.2,9.1-1.2l3.3-6.8c0,0-6.2,1.6-14.3,4
	c-3.3-6.2-7.2-11.1-6.9-16.8C58.4,13.3,69.1,16.8,77.5,16.8z M38.2,53.3C37.9,57.9,34.1,65,29,72c-3.2-1.1-5.8-2.9-7.9-5.1
	C26,62,31.8,57.2,38.2,53.3z M13,37.7c0-20.3,8.7-35,15.7-34.6c3.4,0.2,5.7,5.2,5.7,13s-3.6,17.6-10,29.7c-2,3.8,7.3,2.8,11.7,4.5
	c-6.4,3.9-12.3,8.6-17.4,13.4C14.5,57.3,13,48.2,13,37.7z M4.5,94.8c-2.5-1.9,2.9-13,13.1-24.3c2.8,2,5.9,3.6,9,4.7
	C18,86.6,7.2,96.9,4.5,94.8z M60.2,55.8c-0.7,5.8-4,17.8-21.3,17.8c-1.8,0-3.5-0.1-5-0.3c5.4-8.2,9.2-16.5,9.4-21.6
	c0-0.4,0-0.8-0.1-1.1c0.4-0.2,0.9-0.4,1.3-0.6c5.4-2.6,10.6-4.4,15.2-5.6C60.4,47.6,60.8,51.3,60.2,55.8z"/>
<g>
	<path class="st0" d="M100.2,56.9c-0.4,0-0.8-0.3-0.8-0.8V35.4c0-0.4,0.3-0.8,0.8-0.8h6.1c4,0,6.2,1.8,6.2,5.8
		c0,2.1-0.8,3.8-2.6,4.6c-0.1,0,0,0.1,0,0.1c2.3,0.8,3.5,3.1,3.5,6c0,4-2.4,5.8-6.8,5.8H100.2z M105.8,37.1h-3.5
		c-0.1,0-0.2,0.1-0.2,0.2v7c0,0.1,0.1,0.2,0.2,0.2h4.1c2.1,0,3-1.7,3-4.1C109.5,38,108.4,37.1,105.8,37.1z M106.2,46.9h-3.8
		c-0.1,0-0.2,0.1-0.2,0.2v7.2c0,0.1,0.1,0.2,0.2,0.2h3.7c2.9,0,4.3-0.9,4.3-3.3C110.4,48.1,109.1,46.9,106.2,46.9z"/>
	<path class="st0" d="M120.9,57.1c-1.3,0-2.5-1.1-2.5-2.5c0-1.3,1.1-2.4,2.5-2.4c1.3,0,2.4,1.1,2.4,2.4
		C123.4,56,122.2,57.1,120.9,57.1z"/>
	<path class="st0" d="M134.5,56.9c-0.4,0-0.8-0.3-0.8-0.8V35.4c0-0.4,0.3-0.8,0.8-0.8H146c0.4,0,0.8,0.3,0.8,0.8v0.9
		c0,0.4-0.3,0.8-0.8,0.8h-9.3c-0.1,0-0.2,0.1-0.2,0.2v7.2c0,0.1,0.1,0.2,0.2,0.2h8.2c0.4,0,0.8,0.3,0.8,0.8v0.9
		c0,0.4-0.3,0.8-0.8,0.8h-8.2c-0.1,0-0.2,0.1-0.2,0.2v8.8c0,0.4-0.3,0.8-0.8,0.8H134.5z"/>
	<path class="st0" d="M152.9,56.9c-0.4,0-0.8-0.3-0.8-0.8V35.4c0-0.4,0.3-0.8,0.8-0.8h6.3c4.4,0,6.9,1.9,6.9,6.3
		c0,3.1-1.3,5-3.7,5.8c-0.1,0-0.2,0.2-0.1,0.3l4.3,9.3c0.2,0.3-0.1,0.7-0.4,0.7h-1.5c-0.5,0-0.9-0.3-1.1-0.7l-4.2-8.9
		c0-0.1-0.2-0.2-0.3-0.2h-4.1c-0.1,0-0.2,0.1-0.2,0.2v8.8c0,0.4-0.3,0.8-0.8,0.8H152.9z M158.8,37.1h-3.7c-0.1,0-0.2,0.1-0.2,0.2
		v7.2c0,0.1,0.1,0.2,0.2,0.2h3.7c3,0,4.3-1.1,4.3-3.8C163.1,38.1,161.7,37.1,158.8,37.1z"/>
	<path class="st0" d="M184.8,56.1c0,0.4-0.3,0.8-0.8,0.8h-12.7c-0.4,0-0.8-0.3-0.8-0.8v-1c0-0.4,0.3-0.8,0.8-0.8h4.8
		c0.1,0,0.2-0.1,0.2-0.2V37.3c0-0.1-0.1-0.2-0.2-0.2h-4.8c-0.4,0-0.8-0.3-0.8-0.8v-1c0-0.4,0.3-0.8,0.8-0.8H184
		c0.4,0,0.8,0.3,0.8,0.8v1c0,0.4-0.3,0.8-0.8,0.8h-4.8c-0.1,0-0.2,0.1-0.2,0.2v16.9c0,0.1,0.1,0.2,0.2,0.2h4.8
		c0.4,0,0.8,0.3,0.8,0.8V56.1z"/>
	<path class="st0" d="M191.2,56.9c-0.4,0-0.8-0.3-0.8-0.8V35.4c0-0.4,0.3-0.8,0.8-0.8h11.5c0.4,0,0.8,0.3,0.8,0.8v0.9
		c0,0.4-0.3,0.8-0.8,0.8h-9.3c-0.1,0-0.2,0.1-0.2,0.2V44c0,0.1,0.1,0.2,0.2,0.2h7.7c0.4,0,0.8,0.3,0.8,0.8v0.9
		c0,0.4-0.3,0.8-0.8,0.8h-7.7c-0.1,0-0.2,0.1-0.2,0.2v7.3c0,0.1,0.1,0.2,0.2,0.2h9.3c0.4,0,0.8,0.3,0.8,0.8v0.9
		c0,0.4-0.3,0.8-0.8,0.8H191.2z"/>
	<path class="st0" d="M210.1,56.9c-0.4,0-0.8-0.3-0.8-0.8V35.4c0-0.4,0.3-0.8,0.8-0.8h5.1c5.1,0,8.4,3.4,8.4,11.2
		c0,7.7-3.3,11.2-8.4,11.2H210.1z M214.7,37.1h-2.4c-0.1,0-0.2,0.1-0.2,0.2v17c0,0.1,0.1,0.2,0.2,0.2h2.4c3.7,0,5.9-2.5,5.9-8.7
		C220.6,39.6,218.4,37.1,214.7,37.1z"/>
	<path class="st0" d="M228.5,56.9c-0.4,0-0.8-0.3-0.8-0.8V35.4c0-0.4,0.3-0.8,0.8-0.8h6.3c4.4,0,6.9,1.9,6.9,6.3
		c0,3.1-1.3,5-3.7,5.8c-0.1,0-0.2,0.2-0.1,0.3l4.3,9.3c0.2,0.3-0.1,0.7-0.4,0.7h-1.5c-0.5,0-0.9-0.3-1.1-0.7l-4.2-8.9
		c0-0.1-0.2-0.2-0.3-0.2h-4.1c-0.1,0-0.2,0.1-0.2,0.2v8.8c0,0.4-0.3,0.8-0.8,0.8H228.5z M234.3,37.1h-3.7c-0.1,0-0.2,0.1-0.2,0.2
		v7.2c0,0.1,0.1,0.2,0.2,0.2h3.7c3,0,4.3-1.1,4.3-3.8C238.7,38.1,237.3,37.1,234.3,37.1z"/>
	<path class="st0" d="M260.3,56.1c0,0.4-0.3,0.8-0.8,0.8h-12.7c-0.4,0-0.8-0.3-0.8-0.8v-1c0-0.4,0.3-0.8,0.8-0.8h4.8
		c0.1,0,0.2-0.1,0.2-0.2V37.3c0-0.1-0.1-0.2-0.2-0.2h-4.8c-0.4,0-0.8-0.3-0.8-0.8v-1c0-0.4,0.3-0.8,0.8-0.8h12.7
		c0.4,0,0.8,0.3,0.8,0.8v1c0,0.4-0.3,0.8-0.8,0.8h-4.8c-0.1,0-0.2,0.1-0.2,0.2v16.9c0,0.1,0.1,0.2,0.2,0.2h4.8
		c0.4,0,0.8,0.3,0.8,0.8V56.1z"/>
	<path class="st0" d="M278.6,39.9c0.2,0.4-0.1,0.9-0.5,1l-1.5,0.5c-0.4,0.1-0.9-0.1-1-0.5c-0.9-2.6-2.1-4-3.9-4
		c-2.8,0-4.9,3.2-4.9,8.9c0,5.7,2.1,8.9,4.9,8.9c1.4,0,2.9-0.8,4-3.7c0.2-0.4,0.6-0.6,1-0.5l1.4,0.5c0.4,0.1,0.6,0.6,0.4,1
		c-1.4,3.4-3.5,5.3-6.9,5.3c-4.9,0-7.9-3.8-7.9-11.5c0-7.9,2.9-11.5,7.9-11.5C275.7,34.3,277.3,36.5,278.6,39.9z"/>
	<path class="st0" d="M284.3,56.9c-0.4,0-0.8-0.3-0.8-0.8V35.4c0-0.4,0.3-0.8,0.8-0.8h1.1c0.4,0,0.8,0.3,0.8,0.8v8.9
		c0,0.1,0.1,0.2,0.2,0.2h7.7c0.1,0,0.2-0.1,0.2-0.2v-8.9c0-0.4,0.3-0.8,0.8-0.8h1.1c0.4,0,0.8,0.3,0.8,0.8v20.8
		c0,0.4-0.3,0.8-0.8,0.8h-1.1c-0.4,0-0.8-0.3-0.8-0.8v-8.9c0-0.1-0.1-0.2-0.2-0.2h-7.7c-0.1,0-0.2,0.1-0.2,0.2v8.9
		c0,0.4-0.3,0.8-0.8,0.8H284.3z"/>
</g>
</svg>
